<svg xmlns="http://www.w3.org/2000/svg" viewBox="0 0 512 512" fill="none">
  <defs>
    <linearGradient id="bg" x1="0%" y1="0%" x2="100%" y2="100%">
      <stop offset="0%" stop-color="#6366f1"/>
      <stop offset="100%" stop-color="#8b5cf6"/>
    </linearGradient>
    <linearGradient id="arrow" x1="0%" y1="0%" x2="100%" y2="0%">
      <stop offset="0%" stop-color="#c4b5fd"/>
      <stop offset="100%" stop-color="#ffffff"/>
    </linearGradient>
  </defs>
  <!-- Rounded square background -->
  <rect x="32" y="32" width="448" height="448" rx="96" fill="url(#bg)"/>

  <!-- Left bracket { representing OpenAPI/JSON -->
  <path d="M160 176 C160 176, 140 176, 140 196 L140 236 C140 256, 120 256, 120 256 C120 256, 140 256, 140 276 L140 316 C140 336, 160 336, 160 336"
        stroke="white" stroke-width="20" stroke-linecap="round" stroke-linejoin="round" fill="none" opacity="0.9"/>

  <!-- Arrow in the middle -->
  <line x1="200" y1="256" x2="310" y2="256" stroke="url(#arrow)" stroke-width="16" stroke-linecap="round"/>
  <polyline points="285,232 312,256 285,280" stroke="white" stroke-width="16" stroke-linecap="round" stroke-linejoin="round" fill="none"/>

  <!-- Right: MCP tool/plug icon -->
  <circle cx="370" cy="230" r="14" fill="white" opacity="0.9"/>
  <circle cx="370" cy="282" r="14" fill="white" opacity="0.9"/>
  <rect x="354" y="238" width="32" height="38" rx="4" fill="white" opacity="0.6"/>
  <line x1="370" y1="296" x2="370" y2="330" stroke="white" stroke-width="12" stroke-linecap="round" opacity="0.9"/>
</svg>
